<svg viewBox="0 0 1920 1080" xmlns="http://www.w3.org/2000/svg">
  <defs>
    <!-- Deep galactic space gradient -->
    <radialGradient id="spaceGradient" cx="50%" cy="50%" r="70%">
      <stop offset="0%" style="stop-color:#0f0f1a"/>
      <stop offset="50%" style="stop-color:#050510"/>
      <stop offset="100%" style="stop-color:#000000"/>
    </radialGradient>
    
    <!-- Nebula glow -->
    <radialGradient id="nebula1" cx="30%" cy="40%">
      <stop offset="0%" style="stop-color:#1a2548;stop-opacity:0.3"/>
      <stop offset="100%" style="stop-color:#000000;stop-opacity:0"/>
    </radialGradient>
    
    <radialGradient id="nebula2" cx="70%" cy="60%">
      <stop offset="0%" style="stop-color:#2a1548;stop-opacity:0.2"/>
      <stop offset="100%" style="stop-color:#000000;stop-opacity:0"/>
    </radialGradient>
    
    <filter id="softGlow">
      <feGaussianBlur stdDeviation="1.2" result="coloredBlur"/>
      <feMerge>
        <feMergeNode in="coloredBlur"/>
        <feMergeNode in="SourceGraphic"/>
      </feMerge>
    </filter>
    
    <filter id="textGlow">
      <feGaussianBlur stdDeviation="4" result="coloredBlur"/>
      <feMerge>
        <feMergeNode in="coloredBlur"/>
        <feMergeNode in="coloredBlur"/>
        <feMergeNode in="SourceGraphic"/>
      </feMerge>
    </filter>
  </defs>
  
  <!-- Deep space background -->
  <rect width="1920" height="1080" fill="url(#spaceGradient)"/>
  
  <!-- Nebula clouds -->
  <ellipse cx="576" cy="432" rx="400" ry="300" fill="url(#nebula1)"/>
  <ellipse cx="1344" cy="648" rx="450" ry="350" fill="url(#nebula2)"/>
  
  <!-- GALACTIC PARTICLE FIELD - MASSIVE DENSITY -->
  <g filter="url(#softGlow)">
    <!-- Far background stars - layer 1 (smallest) -->
    <circle cx="80" cy="120" r="0.4" fill="#3d5a7f" opacity="0.15"/>
    <circle cx="150" cy="200" r="0.5" fill="#4a7bb3" opacity="0.2"/>
    <circle cx="220" cy="90" r="0.4" fill="#3d5a7f" opacity="0.15"/>
    <circle cx="310" cy="280" r="0.5" fill="#5a8fc4" opacity="0.2"/>
    <circle cx="380" cy="150" r="0.4" fill="#3d5a7f" opacity="0.15"/>
    <circle cx="460" cy="340" r="0.5" fill="#4a7bb3" opacity="0.2"/>
    <circle cx="530" cy="80" r="0.4" fill="#3d5a7f" opacity="0.15"/>
    <circle cx="620" cy="420" r="0.6" fill="#5a8fc4" opacity="0.2"/>
    <circle cx="710" cy="190" r="0.5" fill="#4a7bb3" opacity="0.2"/>
    <circle cx="780" cy="310" r="0.4" fill="#3d5a7f" opacity="0.15"/>
    <circle cx="860" cy="140" r="0.5" fill="#5a8fc4" opacity="0.2"/>
    <circle cx="940" cy="450" r="0.4" fill="#3d5a7f" opacity="0.15"/>
    <circle cx="1020" cy="230" r="0.5" fill="#4a7bb3" opacity="0.2"/>
    <circle cx="1100" cy="370" r="0.6" fill="#5a8fc4" opacity="0.2"/>
    <circle cx="1180" cy="160" r="0.4" fill="#3d5a7f" opacity="0.15"/>
    <circle cx="1260" cy="500" r="0.5" fill="#4a7bb3" opacity="0.2"/>
    <circle cx="1340" cy="270" r="0.4" fill="#3d5a7f" opacity="0.15"/>
    <circle cx="1430" cy="410" r="0.5" fill="#5a8fc4" opacity="0.2"/>
    <circle cx="1510" cy="110" r="0.4" fill="#3d5a7f" opacity="0.15"/>
    <circle cx="1590" cy="540" r="0.6" fill="#4a7bb3" opacity="0.2"/>
    <circle cx="1670" cy="300" r="0.5" fill="#5a8fc4" opacity="0.2"/>
    <circle cx="1750" cy="180" r="0.4" fill="#3d5a7f" opacity="0.15"/>
    <circle cx="1830" cy="460" r="0.5" fill="#4a7bb3" opacity="0.2"/>
    
    <circle cx="120" cy="600" r="0.5" fill="#4a7bb3" opacity="0.2"/>
    <circle cx="200" cy="720" r="0.4" fill="#3d5a7f" opacity="0.15"/>
    <circle cx="280" cy="840" r="0.5" fill="#5a8fc4" opacity="0.2"/>
    <circle cx="360" cy="960" r="0.4" fill="#3d5a7f" opacity="0.15"/>
    <circle cx="450" cy="680" r="0.5" fill="#4a7bb3" opacity="0.2"/>
    <circle cx="540" cy="780" r="0.6" fill="#5a8fc4" opacity="0.2"/>
    <circle cx="620" cy="900" r="0.4" fill="#3d5a7f" opacity="0.15"/>
    <circle cx="710" cy="620" r="0.5" fill="#4a7bb3" opacity="0.2"/>
    <circle cx="800" cy="1020" r="0.5" fill="#5a8fc4" opacity="0.2"/>
    <circle cx="890" cy="730" r="0.4" fill="#3d5a7f" opacity="0.15"/>
    <circle cx="970" cy="860" r="0.5" fill="#4a7bb3" opacity="0.2"/>
    <circle cx="1060" cy="650" r="0.6" fill="#5a8fc4" opacity="0.2"/>
    <circle cx="1150" cy="980" r="0.4" fill="#3d5a7f" opacity="0.15"/>
    <circle cx="1230" cy="710" r="0.5" fill="#4a7bb3" opacity="0.2"/>
    <circle cx="1320" cy="820" r="0.5" fill="#5a8fc4" opacity="0.2"/>
    <circle cx="1410" cy="940" r="0.4" fill="#3d5a7f" opacity="0.15"/>
    <circle cx="1490" cy="660" r="0.5" fill="#4a7bb3" opacity="0.2"/>
    <circle cx="1580" cy="750" r="0.6" fill="#5a8fc4" opacity="0.2"/>
    <circle cx="1670" cy="890" r="0.4" fill="#3d5a7f" opacity="0.15"/>
    <circle cx="1760" cy="1000" r="0.5" fill="#4a7bb3" opacity="0.2"/>
    <circle cx="1840" cy="800" r="0.5" fill="#5a8fc4" opacity="0.2"/>
    
    <!-- Mid layer stars -->
    <circle cx="100" cy="250" r="0.7" fill="#6b9bd1" opacity="0.3"/>
    <circle cx="190" cy="400" r="0.8" fill="#7daad8" opacity="0.35"/>
    <circle cx="270" cy="180" r="0.7" fill="#6b9bd1" opacity="0.3"/>
    <circle cx="350" cy="520" r="0.9" fill="#8fbee0" opacity="0.4"/>
    <circle cx="440" cy="300" r="0.8" fill="#7daad8" opacity="0.35"/>
    <circle cx="520" cy="440" r="0.7" fill="#6b9bd1" opacity="0.3"/>
    <circle cx="610" cy="210" r="0.9" fill="#8fbee0" opacity="0.4"/>
    <circle cx="700" cy="360" r="0.8" fill="#7daad8" opacity="0.35"/>
    <circle cx="790" cy="490" r="0.7" fill="#6b9bd1" opacity="0.3"/>
    <circle cx="870" cy="270" r="0.9" fill="#8fbee0" opacity="0.4"/>
    <circle cx="960" cy="380" r="0.8" fill="#7daad8" opacity="0.35"/>
    <circle cx="1050" cy="160" r="0.7" fill="#6b9bd1" opacity="0.3"/>
    <circle cx="1130" cy="530" r="0.9" fill="#8fbee0" opacity="0.4"/>
    <circle cx="1220" cy="320" r="0.8" fill="#7daad8" opacity="0.35"/>
    <circle cx="1300" cy="200" r="0.7" fill="#6b9bd1" opacity="0.3"/>
    <circle cx="1390" cy="460" r="0.9" fill="#8fbee0" opacity="0.4"/>
    <circle cx="1480" cy="240" r="0.8" fill="#7daad8" opacity="0.35"/>
    <circle cx="1560" cy="390" r="0.7" fill="#6b9bd1" opacity="0.3"/>
    <circle cx="1650" cy="150" r="0.9" fill="#8fbee0" opacity="0.4"/>
    <circle cx="1740" cy="500" r="0.8" fill="#7daad8" opacity="0.35"/>
    <circle cx="1820" cy="330" r="0.7" fill="#6b9bd1" opacity="0.3"/>
    
    <circle cx="140" cy="700" r="0.8" fill="#7daad8" opacity="0.35"/>
    <circle cx="230" cy="840" r="0.7" fill="#6b9bd1" opacity="0.3"/>
    <circle cx="320" cy="960" r="0.9" fill="#8fbee0" opacity="0.4"/>
    <circle cx="410" cy="740" r="0.8" fill="#7daad8" opacity="0.35"/>
    <circle cx="500" cy="880" r="0.7" fill="#6b9bd1" opacity="0.3"/>
    <circle cx="590" cy="640" r="0.9" fill="#8fbee0" opacity="0.4"/>
    <circle cx="680" cy="1000" r="0.8" fill="#7daad8" opacity="0.35"/>
    <circle cx="770" cy="790" r="0.7" fill="#6b9bd1" opacity="0.3"/>
    <circle cx="860" cy="920" r="0.9" fill="#8fbee0" opacity="0.4"/>
    <circle cx="950" cy="700" r="0.8" fill="#7daad8" opacity="0.35"/>
    <circle cx="1040" cy="820" r="0.7" fill="#6b9bd1" opacity="0.3"/>
    <circle cx="1120" cy="940" r="0.9" fill="#8fbee0" opacity="0.4"/>
    <circle cx="1210" cy="680" r="0.8" fill="#7daad8" opacity="0.35"/>
    <circle cx="1300" cy="1020" r="0.7" fill="#6b9bd1" opacity="0.3"/>
    <circle cx="1390" cy="760" r="0.9" fill="#8fbee0" opacity="0.4"/>
    <circle cx="1480" cy="890" r="0.8" fill="#7daad8" opacity="0.35"/>
    <circle cx="1570" cy="970" r="0.7" fill="#6b9bd1" opacity="0.3"/>
    <circle cx="1660" cy="720" r="0.9" fill="#8fbee0" opacity="0.4"/>
    <circle cx="1750" cy="850" r="0.8" fill="#7daad8" opacity="0.35"/>
    
    <!-- Near layer - brighter stars -->
    <circle cx="160" cy="320" r="1.1" fill="#a8d5ff" opacity="0.5"/>
    <circle cx="250" cy="460" r="1.2" fill="#c8ebff" opacity="0.55"/>
    <circle cx="340" cy="260" r="1" fill="#a8d5ff" opacity="0.5"/>
    <circle cx="430" cy="140" r="1.3" fill="#daf5ff" opacity="0.6"/>
    <circle cx="520" cy="380" r="1.1" fill="#b8e0ff" opacity="0.5"/>
    <circle cx="610" cy="500" r="1.2" fill="#c8ebff" opacity="0.55"/>
    <circle cx="700" cy="120" r="1" fill="#a8d5ff" opacity="0.5"/>
    <circle cx="790" cy="420" r="1.3" fill="#daf5ff" opacity="0.6"/>
    <circle cx="880" cy="300" r="1.1" fill="#b8e0ff" opacity="0.5"/>
    <circle cx="970" cy="180" r="1.2" fill="#c8ebff" opacity="0.55"/>
    <circle cx="1060" cy="510" r="1" fill="#a8d5ff" opacity="0.5"/>
    <circle cx="1150" cy="290" r="1.3" fill="#daf5ff" opacity="0.6"/>
    <circle cx="1240" cy="430" r="1.1" fill="#b8e0ff" opacity="0.5"/>
    <circle cx="1330" cy="150" r="1.2" fill="#c8ebff" opacity="0.55"/>
    <circle cx="1420" cy="370" r="1" fill="#a8d5ff" opacity="0.5"/>
    <circle cx="1510" cy="490" r="1.3" fill="#daf5ff" opacity="0.6"/>
    <circle cx="1600" cy="220" r="1.1" fill="#b8e0ff" opacity="0.5"/>
    <circle cx="1690" cy="340" r="1.2" fill="#c8ebff" opacity="0.55"/>
    <circle cx="1780" cy="440" r="1" fill="#a8d5ff" opacity="0.5"/>
    
    <circle cx="180" cy="770" r="1.2" fill="#c8ebff" opacity="0.55"/>
    <circle cx="270" cy="910" r="1.1" fill="#b8e0ff" opacity="0.5"/>
    <circle cx="360" cy="650" r="1.3" fill="#daf5ff" opacity="0.6"/>
    <circle cx="450" cy="800" r="1" fill="#a8d5ff" opacity="0.5"/>
    <circle cx="540" cy="940" r="1.2" fill="#c8ebff" opacity="0.55"/>
    <circle cx="630" cy="720" r="1.1" fill="#b8e0ff" opacity="0.5"/>
    <circle cx="720" cy="860" r="1.3" fill="#daf5ff" opacity="0.6"/>
    <circle cx="810" cy="680" r="1" fill="#a8d5ff" opacity="0.5"/>
    <circle cx="900" cy="1000" r="1.2" fill="#c8ebff" opacity="0.55"/>
    <circle cx="990" cy="750" r="1.1" fill="#b8e0ff" opacity="0.5"/>
    <circle cx="1080" cy="890" r="1.3" fill="#daf5ff" opacity="0.6"/>
    <circle cx="1170" cy="630" r="1" fill="#a8d5ff" opacity="0.5"/>
    <circle cx="1260" cy="980" r="1.2" fill="#c8ebff" opacity="0.55"/>
    <circle cx="1350" cy="810" r="1.1" fill="#b8e0ff" opacity="0.5"/>
    <circle cx="1440" cy="690" r="1.3" fill="#daf5ff" opacity="0.6"/>
    <circle cx="1530" cy="830" r="1" fill="#a8d5ff" opacity="0.5"/>
    <circle cx="1620" cy="950" r="1.2" fill="#c8ebff" opacity="0.55"/>
    <circle cx="1710" cy="780" r="1.1" fill="#b8e0ff" opacity="0.5"/>
    <circle cx="1800" cy="920" r="1.3" fill="#daf5ff" opacity="0.6"/>
    
    <!-- Extra scattered particles for density -->
    <circle cx="45" cy="380" r="0.5" fill="#4a7bb3" opacity="0.2"/>
    <circle cx="135" cy="510" r="0.6" fill="#5a8fc4" opacity="0.25"/>
    <circle cx="225" cy="290" r="0.5" fill="#4a7bb3" opacity="0.2"/>
    <circle cx="315" cy="650" r="0.7" fill="#6b9bd1" opacity="0.3"/>
    <circle cx="405" cy="220" r="0.6" fill="#5a8fc4" opacity="0.25"/>
    <circle cx="495" cy="560" r="0.8" fill="#7daad8" opacity="0.35"/>
    <circle cx="585" cy="330" r="0.7" fill="#6b9bd1" opacity="0.3"/>
    <circle cx="675" cy="470" r="0.9" fill="#8fbee0" opacity="0.4"/>
    <circle cx="765" cy="240" r="0.8" fill="#7daad8" opacity="0.35"/>
    <circle cx="855" cy="580" r="1" fill="#a8d5ff" opacity="0.45"/>
    <circle cx="945" cy="350" r="0.9" fill="#8fbee0" opacity="0.4"/>
    <circle cx="1035" cy="480" r="1.1" fill="#b8e0ff" opacity="0.5"/>
    <circle cx="1125" cy="270" r="1" fill="#a8d5ff" opacity="0.45"/>
    <circle cx="1215" cy="600" r="1.2" fill="#c8ebff" opacity="0.55"/>
    <circle cx="1305" cy="380" r="1.1" fill="#b8e0ff" opacity="0.5"/>
    <circle cx="1395" cy="250" r="1" fill="#a8d5ff" opacity="0.45"/>
    <circle cx="1485" cy="540" r="0.9" fill="#8fbee0" opacity="0.4"/>
    <circle cx="1575" cy="310" r="0.8" fill="#7daad8" opacity="0.35"/>
    <circle cx="1665" cy="450" r="0.7" fill="#6b9bd1" opacity="0.3"/>
    <circle cx="1755" cy="270" r="0.6" fill="#5a8fc4" opacity="0.25"/>
    <circle cx="1845" cy="410" r="0.5" fill="#4a7bb3" opacity="0.2"/>
    
    <circle cx="75" cy="850" r="0.6" fill="#5a8fc4" opacity="0.25"/>
    <circle cx="165" cy="640" r="0.7" fill="#6b9bd1" opacity="0.3"/>
    <circle cx="255" cy="760" r="0.8" fill="#7daad8" opacity="0.35"/>
    <circle cx="345" cy="1020" r="0.9" fill="#8fbee0" opacity="0.4"/>
    <circle cx="435" cy="870" r="1" fill="#a8d5ff" opacity="0.45"/>
    <circle cx="525" cy="720" r="0.8" fill="#7daad8" opacity="0.35"/>
    <circle cx="615" cy="990" r="0.7" fill="#6b9bd1" opacity="0.3"/>
    <circle cx="705" cy="810" r="1.1" fill="#b8e0ff" opacity="0.5"/>
    <circle cx="795" cy="930" r="1" fill="#a8d5ff" opacity="0.45"/>
    <circle cx="885" cy="660" r="0.9" fill="#8fbee0" opacity="0.4"/>
    <circle cx="975" cy="1040" r="0.8" fill="#7daad8" opacity="0.35"/>
    <circle cx="1065" cy="780" r="1.2" fill="#c8ebff" opacity="0.55"/>
    <circle cx="1155" cy="860" r="1.1" fill="#b8e0ff" opacity="0.5"/>
    <circle cx="1245" cy="920" r="1" fill="#a8d5ff" opacity="0.45"/>
    <circle cx="1335" cy="700" r="0.9" fill="#8fbee0" opacity="0.4"/>
    <circle cx="1425" cy="1010" r="0.8" fill="#7daad8" opacity="0.35"/>
    <circle cx="1515" cy="740" r="0.7" fill="#6b9bd1" opacity="0.3"/>
    <circle cx="1605" cy="880" r="0.6" fill="#5a8fc4" opacity="0.25"/>
    <circle cx="1695" cy="1000" r="0.5" fill="#4a7bb3" opacity="0.2"/>
    <circle cx="1785" cy="820" r="0.6" fill="#5a8fc4" opacity="0.25"/>
    <circle cx="1875" cy="740" r="0.7" fill="#6b9bd1" opacity="0.3"/>
  </g>
  
  <!-- POLARITY - CRAZY 3D TRANSPARENT BLOCKY TEXT - CENTERED -->
  <g id="polarity" filter="url(#textGlow)">
    
    <!-- P (starting around x=420) -->
    <!-- Back layer (darkest, most transparent) -->
    <rect x="425" y="415" width="24" height="24" fill="#4a7bb3" opacity="0.2"/>
    <rect x="425" y="445" width="24" height="24" fill="#4a7bb3" opacity="0.2"/>
    <rect x="425" y="475" width="24" height="24" fill="#4a7bb3" opacity="0.2"/>
    <rect x="425" y="505" width="24" height="24" fill="#4a7bb3" opacity="0.2"/>
    <rect x="425" y="535" width="24" height="24" fill="#4a7bb3" opacity="0.2"/>
    <rect x="455" y="415" width="24" height="24" fill="#4a7bb3" opacity="0.2"/>
    <rect x="485" y="415" width="24" height="24" fill="#4a7bb3" opacity="0.2"/>
    <rect x="515" y="415" width="24" height="24" fill="#4a7bb3" opacity="0.2"/>
    <rect x="515" y="445" width="24" height="24" fill="#4a7bb3" opacity="0.2"/>
    <rect x="515" y="475" width="24" height="24" fill="#4a7bb3" opacity="0.2"/>
    <rect x="485" y="475" width="24" height="24" fill="#4a7bb3" opacity="0.2"/>
    <rect x="455" y="475" width="24" height="24" fill="#4a7bb3" opacity="0.2"/>
    <!-- Mid layer -->
    <rect x="422" y="412" width="24" height="24" fill="#6b9bd1" opacity="0.4"/>
    <rect x="422" y="442" width="24" height="24" fill="#6b9bd1" opacity="0.4"/>
    <rect x="422" y="472" width="24" height="24" fill="#6b9bd1" opacity="0.4"/>
    <rect x="422" y="502" width="24" height="24" fill="#6b9bd1" opacity="0.4"/>
    <rect x="422" y="532" width="24" height="24" fill="#6b9bd1" opacity="0.4"/>
    <rect x="452" y="412" width="24" height="24" fill="#6b9bd1" opacity="0.4"/>
    <rect x="482" y="412" width="24" height="24" fill="#6b9bd1" opacity="0.4"/>
    <rect x="512" y="412" width="24" height="24" fill="#6b9bd1" opacity="0.4"/>
    <rect x="512" y="442" width="24" height="24" fill="#6b9bd1" opacity="0.4"/>
    <rect x="512" y="472" width="24" height="24" fill="#6b9bd1" opacity="0.4"/>
    <rect x="482" y="472" width="24" height="24" fill="#6b9bd1" opacity="0.4"/>
    <rect x="452" y="472" width="24" height="24" fill="#6b9bd1" opacity="0.4"/>
    <!-- Front layer (brightest) -->
    <rect x="420" y="410" width="24" height="24" fill="#e8f4ff" opacity="0.75"/>
    <rect x="420" y="440" width="24" height="24" fill="#ffffff" opacity="0.8"/>
    <rect x="420" y="470" width="24" height="24" fill="#e8f4ff" opacity="0.75"/>
    <rect x="420" y="500" width="24" height="24" fill="#ffffff" opacity="0.8"/>
    <rect x="420" y="530" width="24" height="24" fill="#e8f4ff" opacity="0.75"/>
    <rect x="450" y="410" width="24" height="24" fill="#ffffff" opacity="0.8"/>
    <rect x="480" y="410" width="24" height="24" fill="#e8f4ff" opacity="0.75"/>
    <rect x="510" y="410" width="24" height="24" fill="#ffffff" opacity="0.8"/>
    <rect x="510" y="440" width="24" height="24" fill="#e8f4ff" opacity="0.75"/>
    <rect x="510" y="470" width="24" height="24" fill="#ffffff" opacity="0.8"/>
    <rect x="480" y="470" width="24" height="24" fill="#e8f4ff" opacity="0.75"/>
    <rect x="450" y="470" width="24" height="24" fill="#ffffff" opacity="0.8"/>
    
    <!-- O (starting around x=565) -->
    <!-- Back layer -->
    <rect x="570" y="415" width="24" height="24" fill="#4a7bb3" opacity="0.2"/>
    <rect x="600" y="415" width="24" height="24" fill="#4a7bb3" opacity="0.2"/>
    <rect x="630" y="415" width="24" height="24" fill="#4a7bb3" opacity="0.2"/>
    <rect x="660" y="445" width="24" height="24" fill="#4a7bb3" opacity="0.2"/>
    <rect x="660" y="475" width="24" height="24" fill="#4a7bb3" opacity="0.2"/>
    <rect x="660" y="505" width="24" height="24" fill="#4a7bb3" opacity="0.2"/>
    <rect x="630" y="535" width="24" height="24" fill="#4a7bb3" opacity="0.2"/>
    <rect x="600" y="535" width="24" height="24" fill="#4a7bb3" opacity="0.2"/>
    <rect x="570" y="535" width="24" height="24" fill="#4a7bb3" opacity="0.2"/>
    <rect x="540" y="505" width="24" height="24" fill="#4a7bb3" opacity="0.2"/>
    <rect x="540" y="475" width="24" height="24" fill="#4a7bb3" opacity="0.2"/>
    <rect x="540" y="445" width="24" height="24" fill="#4a7bb3" opacity="0.2"/>
    <!-- Mid layer -->
    <rect x="567" y="412" width="24" height="24" fill="#6b9bd1" opacity="0.4"/>
    <rect x="597" y="412" width="24" height="24" fill="#6b9bd1" opacity="0.4"/>
    <rect x="627" y="412" width="24" height="24" fill="#6b9bd1" opacity="0.4"/>
    <rect x="657" y="442" width="24" height="24" fill="#6b9bd1" opacity="0.4"/>
    <rect x="657" y="472" width="24" height="24" fill="#6b9bd1" opacity="0.4"/>
    <rect x="657" y="502" width="24" height="24" fill="#6b9bd1" opacity="0.4"/>
    <rect x="627" y="532" width="24" height="24" fill="#6b9bd1" opacity="0.4"/>
    <rect x="597" y="532" width="24" height="24" fill="#6b9bd1" opacity="0.4"/>
    <rect x="567" y="532" width="24" height="24" fill="#6b9bd1" opacity="0.4"/>
    <rect x="537" y="502" width="24" height="24" fill="#6b9bd1" opacity="0.4"/>
    <rect x="537" y="472" width="24" height="24" fill="#6b9bd1" opacity="0.4"/>
    <rect x="537" y="442" width="24" height="24" fill="#6b9bd1" opacity="0.4"/>
    <!-- Front layer -->
    <rect x="565" y="410" width="24" height="24" fill="#ffffff" opacity="0.8"/>
    <rect x="595" y="410" width="24" height="24" fill="#e8f4ff" opacity="0.75"/>
    <rect x="625" y="410" width="24" height="24" fill="#ffffff" opacity="0.8"/>
    <rect x="655" y="440" width="24" height="24" fill="#e8f4ff" opacity="0.75"/>
    <rect x="655" y="470" width="24" height="24" fill="#ffffff" opacity="0.8"/>
    <rect x="655" y="500" width="24" height="24" fill="#e8f4ff" opacity="0.75"/>
    <rect x="625" y="530" width="24" height="24" fill="#ffffff" opacity="0.8"/>
    <rect x="595" y="530" width="24" height="24" fill="#e8f4ff" opacity="0.75"/>
    <rect x="565" y="530" width="24" height="24" fill="#ffffff" opacity="0.8"/>
    <rect x="535" y="500" width="24" height="24" fill="#e8f4ff" opacity="0.75"/>
    <rect x="535" y="470" width="24" height="24" fill="#ffffff" opacity="0.8"/>
    <rect x="535" y="440" width="24" height="24" fill="#e8f4ff" opacity="0.75"/>
    
    <!-- L (starting around x=700) -->
    <!-- Back layer -->
    <rect x="705" y="415" width="24" height="24" fill="#4a7bb3" opacity="0.2"/>
    <rect x="705" y="445" width="24" height="24" fill="#4a7bb3" opacity="0.2"/>
    <rect x="705" y="475" width="24" height="24" fill="#4a7bb3" opacity="0.2"/>
    <rect x="705" y="505" width="24" height="24" fill="#4a7bb3" opacity="0.2"/>
    <rect x="705" y="535" width="24" height="24" fill="#4a7bb3" opacity="0.2"/>
    <rect x="735" y="535" width="24" height="24" fill="#4a7bb3" opacity="0.2"/>
    <rect x="765" y="535" width="24" height="24" fill="#4a7bb3" opacity="0.2"/>
    <rect x="795" y="535" width="24" height="24" fill="#4a7bb3" opacity="0.2"/>
    <!-- Mid layer -->
    <rect x="702" y="412" width="24" height="24" fill="#6b9bd1" opacity="0.4"/>
    <rect x="702" y="442" width="24" height="24" fill="#6b9bd1" opacity="0.4"/>
    <rect x="702" y="472" width="24" height="24" fill="#6b9bd1" opacity="0.4"/>
    <rect x="702" y="502" width="24" height="24" fill="#6b9bd1" opacity="0.4"/>
    <rect x="702" y="532" width="24" height="24" fill="#6b9bd1" opacity="0.4"/>
    <rect x="732" y="532" width="24" height="24" fill="#6b9bd1" opacity="0.4"/>
    <rect x="762" y="532" width="24" height="24" fill="#6b9bd1" opacity="0.4"/>
    <rect x="792" y="532" width="24" height="24" fill="#6b9bd1" opacity="0.4"/>
    <!-- Front layer -->
    <rect x="700" y="410" width="24" height="24" fill="#e8f4ff" opacity="0.75"/>
    <rect x="700" y="440" width="24" height="24" fill="#ffffff" opacity="0.8"/>
    <rect x="700" y="470" width="24" height="24" fill="#e8f4ff" opacity="0.75"/>
    <rect x="700" y="500" width="24" height="24" fill="#ffffff" opacity="0.8"/>
    <rect x="700" y="530" width="24" height="24" fill="#e8f4ff" opacity="0.75"/>
    <rect x="730" y="530" width="24" height="24" fill="#ffffff" opacity="0.8"/>
    <rect x="760" y="530" width="24" height="24" fill="#e8f4ff" opacity="0.75"/>
    <rect x="790" y="530" width="24" height="24" fill="#ffffff" opacity="0.8"/>
    
    <!-- A (starting around x=850) -->
    <!-- Back layer -->
    <rect x="880" y="415" width="24" height="24" fill="#4a7bb3" opacity="0.2"/>
    <rect x="850" y="445" width="24" height="24" fill="#4a7bb3" opacity="0.2"/>
    <rect x="820" y="475" width="24" height="24" fill="#4a7bb3" opacity="0.2"/>
    <rect x="790" y="505" width="24" height="24" fill="#4a7bb3" opacity="0.2"/>
    <rect x="760" y="535" width="24" height="24" fill="#4a7bb3" opacity="0.2"/>
    <rect x="850" y="475" width="24" height="24" fill="#4a7bb3" opacity="0.2"/>
    <rect x="880" y="475" width="24" height="24" fill="#4a7bb3" opacity="0.2"/>
    <rect x="910" y="475" width="24" height="24" fill="#4a7bb3" opacity="0.2"/>
    <rect x="910" y="445" width="24" height="24" fill="#4a7bb3" opacity="0.2"/>
    <rect x="940" y="475" width="24" height="24" fill="#4a7bb3" opacity="0.2"/>
    <rect x="970" y="505" width="24" height="24" fill="#4a7bb3" opacity="0.2"/>
    <rect x="1000" y="535" width="24" height="24" fill="#4a7bb3" opacity="0.2"/>
    <!-- Mid layer -->
    <rect x="877" y="412" width="24" height="24" fill="#6b9bd1" opacity="0.4"/>
    <rect x="847" y="442" width="24" height="24" fill="#6b9bd1" opacity="0.4"/>
    <rect x="817" y="472" width="24" height="24" fill="#6b9bd1" opacity="0.4"/>
    <rect x="787" y="502" width="24" height="24" fill="#6b9bd1" opacity="0.4"/>
    <rect x="757" y="532" width="24" height="24" fill="#6b9bd1" opacity="0.4"/>
    <rect x="847" y="472" width="24" height="24" fill="#6b9bd1" opacity="0.4"/>
    <rect x="877" y="472" width="24" height="24" fill="#6b9bd1" opacity="0.4"/>
    <rect x="907" y="472" width="24" height="24" fill="#6b9bd1" opacity="0.4"/>
    <rect x="907" y="442" width="24" height="24" fill="#6b9bd1" opacity="0.4"/>
    <rect x="937" y="472" width="24" height="24" fill="#6b9bd1" opacity="0.4"/>
    <rect x="967" y="502" width="24" height="24" fill="#6b9bd1" opacity="0.4"/>
    <rect x="997" y="532" width="24" height="24" fill="#6b9bd1" opacity="0.4"/>
    <!-- Front layer -->
    <rect x="875" y="410" width="24" height="24" fill="#ffffff" opacity="0.8"/>
    <rect x="845" y="440" width="24" height="24" fill="#e8f4ff" opacity="0.75"/>
    <rect x="815" y="470" width="24" height="24" fill="#ffffff" opacity="0.8"/>
    <rect x="785" y="500" width="24" height="24" fill="#e8f4ff" opacity="0.75"/>
    <rect x="755" y="530" width="24" height="24" fill="#ffffff" opacity="0.8"/>
    <rect x="845" y="470" width="24" height="24" fill="#e8f4ff" opacity="0.75"/>
    <rect x="875" y="470" width="24" height="24" fill="#ffffff" opacity="0.8"/>
    <rect x="905" y="470" width="24" height="24" fill="#e8f4ff" opacity="0.75"/>
    <rect x="905" y="440" width="24" height="24" fill="#ffffff" opacity="0.8"/>
    <rect x="935" y="470" width="24" height="24" fill="#e8f4ff" opacity="0.75"/>
    <rect x="965" y="500" width="24" height="24" fill="#ffffff" opacity="0.8"/>
    <rect x="995" y="530" width="24" height="24" fill="#e8f4ff" opacity="0.75"/>
    
    <!-- R (starting around x=1040) -->
    <!-- Back layer -->
    <rect x="1045" y="415" width="24" height="24" fill="#4a7bb3" opacity="0.2"/>
    <rect x="1045" y="445" width="24" height="24" fill="#4a7bb3" opacity="0.2"/>
    <rect x="1045" y="475" width="24" height="24" fill="#4a7bb3" opacity="0.2"/>
    <rect x="1045" y="505" width="24" height="24" fill="#4a7bb3" opacity="0.2"/>
    <rect x="1045" y="535" width="24" height="24" fill="#4a7bb3" opacity="0.2"/>
    <rect x="1075" y="415" width="24" height="24" fill="#4a7bb3" opacity="0.2"/>
    <rect x="1105" y="415" width="24" height="24" fill="#4a7bb3" opacity="0.2"/>
    <rect x="1135" y="415" width="24" height="24" fill="#4a7bb3" opacity="0.2"/>
    <rect x="1135" y="445" width="24" height="24" fill="#4a7bb3" opacity="0.2"/>
    <rect x="1135" y="475" width="24" height="24" fill="#4a7bb3" opacity="0.2"/>
    <rect x="1105" y="475" width="24" height="24" fill="#4a7bb3" opacity="0.2"/>
    <rect x="1075" y="475" width="24" height="24" fill="#4a7bb3" opacity="0.2"/>
    <rect x="1105" y="505" width="24" height="24" fill="#4a7bb3" opacity="0.2"/>
    <rect x="1135" y="535" width="24" height="24" fill="#4a7bb3" opacity="0.2"/>
    <!-- Mid layer -->
    <rect x="1042" y="412" width="24" height="24" fill="#6b9bd1" opacity="0.4"/>
    <rect x="1042" y="442" width="24" height="24" fill="#6b9bd1" opacity="0.4"/>
    <rect x="1042" y="472" width="24" height="24" fill="#6b9bd1" opacity="0.4"/>
    <rect x="1042" y="502" width="24" height="24" fill="#6b9bd1" opacity="0.4"/>
    <rect x="1042" y="532" width="24" height="24" fill="#6b9bd1" opacity="0.4"/>
    <rect x="1072" y="412" width="24" height="24" fill="#6b9bd1" opacity="0.4"/>
    <rect x="1102" y="412" width="24" height="24" fill="#6b9bd1" opacity="0.4"/>
    <rect x="1132" y="412" width="24" height="24" fill="#6b9bd1" opacity="0.4"/>
    <rect x="1132" y="442" width="24" height="24" fill="#6b9bd1" opacity="0.4"/>
    <rect x="1132" y="472" width="24" height="24" fill="#6b9bd1" opacity="0.4"/>
    <rect x="1102" y="472" width="24" height="24" fill="#6b9bd1" opacity="0.4"/>
    <rect x="1072" y="472" width="24" height="24" fill="#6b9bd1" opacity="0.4"/>
    <rect x="1102" y="502" width="24" height="24" fill="#6b9bd1" opacity="0.4"/>
    <rect x="1132" y="532" width="24" height="24" fill="#6b9bd1" opacity="0.4"/>
    <!-- Front layer -->
    <rect x="1040" y="410" width="24" height="24" fill="#e8f4ff" opacity="0.75"/>
    <rect x="1040" y="440" width="24" height="24" fill="#ffffff" opacity="0.8"/>
    <rect x="1040" y="470" width="24" height="24" fill="#e8f4ff" opacity="0.75"/>
    <rect x="1040" y="500" width="24" height="24" fill="#ffffff" opacity="0.8"/>
    <rect x="1040" y="530" width="24" height="24" fill="#e8f4ff" opacity="0.75"/>
    <rect x="1070" y="410" width="24" height="24" fill="#ffffff" opacity="0.8"/>
    <rect x="1100" y="410" width="24" height="24" fill="#e8f4ff" opacity="0.75"/>
    <rect x="1130" y="410" width="24" height="24" fill="#ffffff" opacity="0.8"/>
    <rect x="1130" y="440" width="24" height="24" fill="#e8f4ff" opacity="0.75"/>
    <rect x="1130" y="470" width="24" height="24" fill="#ffffff" opacity="0.8"/>
    <rect x="1100" y="470" width="24" height="24" fill="#e8f4ff" opacity="0.75"/>
    <rect x="1070" y="470" width="24" height="24" fill="#ffffff" opacity="0.8"/>
    <rect x="1100" y="500" width="24" height="24" fill="#e8f4ff" opacity="0.75"/>
    <rect x="1130" y="530" width="24" height="24" fill="#ffffff" opacity="0.8"/>
    
    <!-- I (starting around x=1185) -->
    <!-- Back layer -->
    <rect x="1190" y="415" width="24" height="24" fill="#4a7bb3" opacity="0.2"/>
    <rect x="1190" y="445" width="24" height="24" fill="#4a7bb3" opacity="0.2"/>
    <rect x="1190" y="475" width="24" height="24" fill="#4a7bb3" opacity="0.2"/>
    <rect x="1190" y="505" width="24" height="24" fill="#4a7bb3" opacity="0.2"/>
    <rect x="1190" y="535" width="24" height="24" fill="#4a7bb3" opacity="0.2"/>
    <!-- Mid layer -->
    <rect x="1187" y="412" width="24" height="24" fill="#6b9bd1" opacity="0.4"/>
    <rect x="1187" y="442" width="24" height="24" fill="#6b9bd1" opacity="0.4"/>
    <rect x="1187" y="472" width="24" height="24" fill="#6b9bd1" opacity="0.4"/>
    <rect x="1187" y="502" width="24" height="24" fill="#6b9bd1" opacity="0.4"/>
    <rect x="1187" y="532" width="24" height="24" fill="#6b9bd1" opacity="0.4"/>
    <!-- Front layer -->
    <rect x="1185" y="410" width="24" height="24" fill="#e8f4ff" opacity="0.75"/>
    <rect x="1185" y="440" width="24" height="24" fill="#ffffff" opacity="0.8"/>
    <rect x="1185" y="470" width="24" height="24" fill="#e8f4ff" opacity="0.75"/>
    <rect x="1185" y="500" width="24" height="24" fill="#ffffff" opacity="0.8"/>
    <rect x="1185" y="530" width="24" height="24" fill="#e8f4ff" opacity="0.75"/>
    
    <!-- T (starting around x=1235) -->
    <!-- Back layer -->
    <rect x="1240" y="415" width="24" height="24" fill="#4a7bb3" opacity="0.2"/>
    <rect x="1270" y="415" width="24" height="24" fill="#4a7bb3" opacity="0.2"/>
    <rect x="1300" y="415" width="24" height="24" fill="#4a7bb3" opacity="0.2"/>
    <rect x="1330" y="415" width="24" height="24" fill="#4a7bb3" opacity="0.2"/>
    <rect x="1300" y="445" width="24" height="24" fill="#4a7bb3" opacity="0.2"/>
    <rect x="1300" y="475" width="24" height="24" fill="#4a7bb3" opacity="0.2"/>
    <rect x="1300" y="505" width="24" height="24" fill="#4a7bb3" opacity="0.2"/>
    <rect x="1300" y="535" width="24" height="24" fill="#4a7bb3" opacity="0.2"/>
    <!-- Mid layer -->
    <rect x="1237" y="412" width="24" height="24" fill="#6b9bd1" opacity="0.4"/>
    <rect x="1267" y="412" width="24" height="24" fill="#6b9bd1" opacity="0.4"/>
    <rect x="1297" y="412" width="24" height="24" fill="#6b9bd1" opacity="0.4"/>
    <rect x="1327" y="412" width="24" height="24" fill="#6b9bd1" opacity="0.4"/>
    <rect x="1297" y="442" width="24" height="24" fill="#6b9bd1" opacity="0.4"/>
    <rect x="1297" y="472" width="24" height="24" fill="#6b9bd1" opacity="0.4"/>
    <rect x="1297" y="502" width="24" height="24" fill="#6b9bd1" opacity="0.4"/>
    <rect x="1297" y="532" width="24" height="24" fill="#6b9bd1" opacity="0.4"/>
    <!-- Front layer -->
    <rect x="1235" y="410" width="24" height="24" fill="#ffffff" opacity="0.8"/>
    <rect x="1265" y="410" width="24" height="24" fill="#e8f4ff" opacity="0.75"/>
    <rect x="1295" y="410" width="24" height="24" fill="#ffffff" opacity="0.8"/>
    <rect x="1325" y="410" width="24" height="24" fill="#e8f4ff" opacity="0.75"/>
    <rect x="1295" y="440" width="24" height="24" fill="#e8f4ff" opacity="0.75"/>
    <rect x="1295" y="470" width="24" height="24" fill="#ffffff" opacity="0.8"/>
    <rect x="1295" y="500" width="24" height="24" fill="#e8f4ff" opacity="0.75"/>
    <rect x="1295" y="530" width="24" height="24" fill="#ffffff" opacity="0.8"/>
    
    <!-- Y (starting around x=1385) -->
    <!-- Back layer -->
    <rect x="1390" y="415" width="24" height="24" fill="#4a7bb3" opacity="0.2"/>
    <rect x="1420" y="445" width="24" height="24" fill="#4a7bb3" opacity="0.2"/>
    <rect x="1450" y="475" width="24" height="24" fill="#4a7bb3" opacity="0.2"/>
    <rect x="1450" y="505" width="24" height="24" fill="#4a7bb3" opacity="0.2"/>
    <rect x="1450" y="535" width="24" height="24" fill="#4a7bb3" opacity="0.2"/>
    <rect x="1510" y="415" width="24" height="24" fill="#4a7bb3" opacity="0.2"/>
    <rect x="1480" y="445" width="24" height="24" fill="#4a7bb3" opacity="0.2"/>
    <!-- Mid layer -->
    <rect x="1387" y="412" width="24" height="24" fill="#6b9bd1" opacity="0.4"/>
    <rect x="1417" y="442" width="24" height="24" fill="#6b9bd1" opacity="0.4"/>
    <rect x="1447" y="472" width="24" height="24" fill="#6b9bd1" opacity="0.4"/>
    <rect x="1447" y="502" width="24" height="24" fill="#6b9bd1" opacity="0.4"/>
    <rect x="1447" y="532" width="24" height="24" fill="#6b9bd1" opacity="0.4"/>
    <rect x="1507" y="412" width="24" height="24" fill="#6b9bd1" opacity="0.4"/>
    <rect x="1477" y="442" width="24" height="24" fill="#6b9bd1" opacity="0.4"/>
    <!-- Front layer -->
    <rect x="1385" y="410" width="24" height="24" fill="#ffffff" opacity="0.8"/>
    <rect x="1415" y="440" width="24" height="24" fill="#e8f4ff" opacity="0.75"/>
    <rect x="1445" y="470" width="24" height="24" fill="#ffffff" opacity="0.8"/>
    <rect x="1445" y="500" width="24" height="24" fill="#e8f4ff" opacity="0.75"/>
    <rect x="1445" y="530" width="24" height="24" fill="#ffffff" opacity="0.8"/>
    <rect x="1505" y="410" width="24" height="24" fill="#ffffff" opacity="0.8"/>
    <rect x="1475" y="440" width="24" height="24" fill="#e8f4ff" opacity="0.75"/>
    
  </g>
  
</svg>
