<svg viewBox="0 0 1920 1080" xmlns="http://www.w3.org/2000/svg">
  <defs>
    <!-- Realistic star glow -->
    <filter id="starGlow">
      <feGaussianBlur stdDeviation="0.8" result="coloredBlur"/>
      <feMerge>
        <feMergeNode in="coloredBlur"/>
        <feMergeNode in="SourceGraphic"/>
      </feMerge>
    </filter>
    
    <!-- Professional text glow (subtle but powerful) -->
    <filter id="professionalGlow">
      <feGaussianBlur stdDeviation="3.5" result="coloredBlur"/>
      <feMerge>
        <feMergeNode in="coloredBlur"/>
        <feMergeNode in="coloredBlur"/>
        <feMergeNode in="SourceGraphic"/>
      </feMerge>
    </filter>
    
    <!-- Sharp inner glow for depth -->
    <filter id="innerGlow">
      <feGaussianBlur stdDeviation="1" result="coloredBlur"/>
      <feMerge>
        <feMergeNode in="coloredBlur"/>
        <feMergeNode in="SourceGraphic"/>
      </feMerge>
    </filter>
  </defs>
  
  <!-- Transparent background - fully transparent -->
  
  <!-- REALISTIC STAR FIELD - scattered, varied brightness -->
  <g filter="url(#starGlow)">
    <!-- Distant stars (tiniest, dimmest) -->
    <circle cx="85" cy="120" r="0.3" fill="#5a7a9f" opacity="0.15"/>
    <circle cx="240" cy="95" r="0.25" fill="#4a6a8f" opacity="0.12"/>
    <circle cx="410" cy="165" r="0.3" fill="#5a7a9f" opacity="0.15"/>
    <circle cx="580" cy="110" r="0.25" fill="#4a6a8f" opacity="0.12"/>
    <circle cx="750" cy="200" r="0.3" fill="#5a7a9f" opacity="0.15"/>
    <circle cx="920" cy="145" r="0.25" fill="#4a6a8f" opacity="0.12"/>
    <circle cx="1090" cy="180" r="0.3" fill="#5a7a9f" opacity="0.15"/>
    <circle cx="1260" cy="125" r="0.25" fill="#4a6a8f" opacity="0.12"/>
    <circle cx="1430" cy="190" r="0.3" fill="#5a7a9f" opacity="0.15"/>
    <circle cx="1600" cy="140" r="0.25" fill="#4a6a8f" opacity="0.12"/>
    <circle cx="1770" cy="210" r="0.3" fill="#5a7a9f" opacity="0.15"/>
    <circle cx="1850" cy="165" r="0.25" fill="#4a6a8f" opacity="0.12"/>
    
    <circle cx="120" cy="630" r="0.3" fill="#5a7a9f" opacity="0.15"/>
    <circle cx="290" cy="780" r="0.25" fill="#4a6a8f" opacity="0.12"/>
    <circle cx="460" cy="850" r="0.3" fill="#5a7a9f" opacity="0.15"/>
    <circle cx="630" cy="720" r="0.25" fill="#4a6a8f" opacity="0.12"/>
    <circle cx="800" cy="900" r="0.3" fill="#5a7a9f" opacity="0.15"/>
    <circle cx="970" cy="810" r="0.25" fill="#4a6a8f" opacity="0.12"/>
    <circle cx="1140" cy="930" r="0.3" fill="#5a7a9f" opacity="0.15"/>
    <circle cx="1310" cy="770" r="0.25" fill="#4a6a8f" opacity="0.12"/>
    <circle cx="1480" cy="880" r="0.3" fill="#5a7a9f" opacity="0.15"/>
    <circle cx="1650" cy="820" r="0.25" fill="#4a6a8f" opacity="0.12"/>
    <circle cx="1820" cy="950" r="0.3" fill="#5a7a9f" opacity="0.15"/>
    
    <!-- Mid-distance stars -->
    <circle cx="160" cy="280" r="0.5" fill="#6a8aaf" opacity="0.25"/>
    <circle cx="330" cy="350" r="0.55" fill="#7a9abf" opacity="0.28"/>
    <circle cx="500" cy="240" r="0.5" fill="#6a8aaf" opacity="0.25"/>
    <circle cx="670" cy="420" r="0.6" fill="#8aaacf" opacity="0.3"/>
    <circle cx="840" cy="310" r="0.55" fill="#7a9abf" opacity="0.28"/>
    <circle cx="1010" cy="380" r="0.5" fill="#6a8aaf" opacity="0.25"/>
    <circle cx="1180" cy="260" r="0.6" fill="#8aaacf" opacity="0.3"/>
    <circle cx="1350" cy="440" r="0.55" fill="#7a9abf" opacity="0.28"/>
    <circle cx="1520" cy="290" r="0.5" fill="#6a8aaf" opacity="0.25"/>
    <circle cx="1690" cy="360" r="0.6" fill="#8aaacf" opacity="0.3"/>
    <circle cx="1840" cy="320" r="0.55" fill="#7a9abf" opacity="0.28"/>
    
    <circle cx="200" cy="710" r="0.55" fill="#7a9abf" opacity="0.28"/>
    <circle cx="370" cy="840" r="0.5" fill="#6a8aaf" opacity="0.25"/>
    <circle cx="540" cy="920" r="0.6" fill="#8aaacf" opacity="0.3"/>
    <circle cx="710" cy="790" r="0.55" fill="#7a9abf" opacity="0.28"/>
    <circle cx="880" cy="680" r="0.5" fill="#6a8aaf" opacity="0.25"/>
    <circle cx="1050" cy="970" r="0.6" fill="#8aaacf" opacity="0.3"/>
    <circle cx="1220" cy="730" r="0.55" fill="#7a9abf" opacity="0.28"/>
    <circle cx="1390" cy="860" r="0.5" fill="#6a8aaf" opacity="0.25"/>
    <circle cx="1560" cy="750" r="0.6" fill="#8aaacf" opacity="0.3"/>
    <circle cx="1730" cy="890" r="0.55" fill="#7a9abf" opacity="0.28"/>
    
    <!-- Near stars (brighter) -->
    <circle cx="190" cy="320" r="0.8" fill="#9abadf" opacity="0.4"/>
    <circle cx="360" cy="190" r="0.85" fill="#aacaef" opacity="0.45"/>
    <circle cx="530" cy="410" r="0.8" fill="#9abadf" opacity="0.4"/>
    <circle cx="700" cy="270" r="0.9" fill="#badaff" opacity="0.5"/>
    <circle cx="870" cy="450" r="0.85" fill="#aacaef" opacity="0.45"/>
    <circle cx="1040" cy="220" r="0.8" fill="#9abadf" opacity="0.4"/>
    <circle cx="1210" cy="380" r="0.9" fill="#badaff" opacity="0.5"/>
    <circle cx="1380" cy="300" r="0.85" fill="#aacaef" opacity="0.45"/>
    <circle cx="1550" cy="430" r="0.8" fill="#9abadf" opacity="0.4"/>
    <circle cx="1720" cy="250" r="0.9" fill="#badaff" opacity="0.5"/>
    
    <circle cx="230" cy="800" r="0.85" fill="#aacaef" opacity="0.45"/>
    <circle cx="400" cy="670" r="0.8" fill="#9abadf" opacity="0.4"/>
    <circle cx="570" cy="980" r="0.9" fill="#badaff" opacity="0.5"/>
    <circle cx="740" cy="740" r="0.85" fill="#aacaef" opacity="0.45"/>
    <circle cx="910" cy="620" r="0.8" fill="#9abadf" opacity="0.4"/>
    <circle cx="1080" cy="900" r="0.9" fill="#badaff" opacity="0.5"/>
    <circle cx="1250" cy="780" r="0.85" fill="#aacaef" opacity="0.45"/>
    <circle cx="1420" cy="650" r="0.8" fill="#9abadf" opacity="0.4"/>
    <circle cx="1590" cy="940" r="0.9" fill="#badaff" opacity="0.5"/>
    <circle cx="1760" cy="820" r="0.85" fill="#aacaef" opacity="0.45"/>
    
    <!-- Foreground stars (brightest, most prominent) -->
    <circle cx="220" cy="370" r="1.1" fill="#cae5ff" opacity="0.6"/>
    <circle cx="390" cy="460" r="1.2" fill="#daf0ff" opacity="0.65"/>
    <circle cx="560" cy="290" r="1.1" fill="#cae5ff" opacity="0.6"/>
    <circle cx="730" cy="150" r="1.3" fill="#eafbff" opacity="0.7"/>
    <circle cx="900" cy="380" r="1.2" fill="#daf0ff" opacity="0.65"/>
    <circle cx="1070" cy="490" r="1.1" fill="#cae5ff" opacity="0.6"/>
    <circle cx="1240" cy="210" r="1.3" fill="#eafbff" opacity="0.7"/>
    <circle cx="1410" cy="340" r="1.2" fill="#daf0ff" opacity="0.65"/>
    <circle cx="1580" cy="470" r="1.1" fill="#cae5ff" opacity="0.6"/>
    <circle cx="1750" cy="300" r="1.3" fill="#eafbff" opacity="0.7"/>
    
    <circle cx="260" cy="850" r="1.2" fill="#daf0ff" opacity="0.65"/>
    <circle cx="430" cy="720" r="1.1" fill="#cae5ff" opacity="0.6"/>
    <circle cx="600" cy="610" r="1.3" fill="#eafbff" opacity="0.7"/>
    <circle cx="770" cy="980" r="1.2" fill="#daf0ff" opacity="0.65"/>
    <circle cx="940" cy="760" r="1.1" fill="#cae5ff" opacity="0.6"/>
    <circle cx="1110" cy="880" r="1.3" fill="#eafbff" opacity="0.7"/>
    <circle cx="1280" cy="640" r="1.2" fill="#daf0ff" opacity="0.65"/>
    <circle cx="1450" cy="910" r="1.1" fill="#cae5ff" opacity="0.6"/>
    <circle cx="1620" cy="700" r="1.3" fill="#eafbff" opacity="0.7"/>
    <circle cx="1790" cy="830" r="1.2" fill="#daf0ff" opacity="0.65"/>
    
    <!-- Accent bright stars (key light sources) -->
    <circle cx="380" cy="140" r="1.5" fill="#f0faff" opacity="0.75"/>
    <circle cx="820" cy="230" r="1.6" fill="#ffffff" opacity="0.8"/>
    <circle cx="1280" cy="350" r="1.5" fill="#f0faff" opacity="0.75"/>
    <circle cx="1640" cy="180" r="1.6" fill="#ffffff" opacity="0.8"/>
    <circle cx="520" cy="890" r="1.5" fill="#f0faff" opacity="0.75"/>
    <circle cx="1140" cy="760" r="1.6" fill="#ffffff" opacity="0.8"/>
    <circle cx="1560" cy="950" r="1.5" fill="#f0faff" opacity="0.75"/>
  </g>
  
  <!-- POLARITY - PROFESSIONAL 5-LAYER DEPTH - INDUSTRY GRADE -->
  <g id="polarity" filter="url(#professionalGlow)">
    
    <!-- P - 5 layers with realistic depth -->
    <!-- Layer 5 (deepest shadow) -->
    <rect x="434" y="424" width="24" height="24" fill="#1a2a3f" opacity="0.18"/>
    <rect x="434" y="454" width="24" height="24" fill="#1a2a3f" opacity="0.18"/>
    <rect x="434" y="484" width="24" height="24" fill="#1a2a3f" opacity="0.18"/>
    <rect x="434" y="514" width="24" height="24" fill="#1a2a3f" opacity="0.18"/>
    <rect x="434" y="544" width="24" height="24" fill="#1a2a3f" opacity="0.18"/>
    <rect x="464" y="424" width="24" height="24" fill="#1a2a3f" opacity="0.18"/>
    <rect x="494" y="424" width="24" height="24" fill="#1a2a3f" opacity="0.18"/>
    <rect x="524" y="424" width="24" height="24" fill="#1a2a3f" opacity="0.18"/>
    <rect x="524" y="454" width="24" height="24" fill="#1a2a3f" opacity="0.18"/>
    <rect x="524" y="484" width="24" height="24" fill="#1a2a3f" opacity="0.18"/>
    <rect x="494" y="484" width="24" height="24" fill="#1a2a3f" opacity="0.18"/>
    <rect x="464" y="484" width="24" height="24" fill="#1a2a3f" opacity="0.18"/>
    <!-- Layer 4 -->
    <rect x="430" y="420" width="24" height="24" fill="#2a3a5f" opacity="0.28"/>
    <rect x="430" y="450" width="24" height="24" fill="#2a3a5f" opacity="0.28"/>
    <rect x="430" y="480" width="24" height="24" fill="#2a3a5f" opacity="0.28"/>
    <rect x="430" y="510" width="24" height="24" fill="#2a3a5f" opacity="0.28"/>
    <rect x="430" y="540" width="24" height="24" fill="#2a3a5f" opacity="0.28"/>
    <rect x="460" y="420" width="24" height="24" fill="#2a3a5f" opacity="0.28"/>
    <rect x="490" y="420" width="24" height="24" fill="#2a3a5f" opacity="0.28"/>
    <rect x="520" y="420" width="24" height="24" fill="#2a3a5f" opacity="0.28"/>
    <rect x="520" y="450" width="24" height="24" fill="#2a3a5f" opacity="0.28"/>
    <rect x="520" y="480" width="24" height="24" fill="#2a3a5f" opacity="0.28"/>
    <rect x="490" y="480" width="24" height="24" fill="#2a3a5f" opacity="0.28"/>
    <rect x="460" y="480" width="24" height="24" fill="#2a3a5f" opacity="0.28"/>
    <!-- Layer 3 -->
    <rect x="426" y="416" width="24" height="24" fill="#3a5a8f" opacity="0.4"/>
    <rect x="426" y="446" width="24" height="24" fill="#3a5a8f" opacity="0.4"/>
    <rect x="426" y="476" width="24" height="24" fill="#3a5a8f" opacity="0.4"/>
    <rect x="426" y="506" width="24" height="24" fill="#3a5a8f" opacity="0.4"/>
    <rect x="426" y="536" width="24" height="24" fill="#3a5a8f" opacity="0.4"/>
    <rect x="456" y="416" width="24" height="24" fill="#3a5a8f" opacity="0.4"/>
    <rect x="486" y="416" width="24" height="24" fill="#3a5a8f" opacity="0.4"/>
    <rect x="516" y="416" width="24" height="24" fill="#3a5a8f" opacity="0.4"/>
    <rect x="516" y="446" width="24" height="24" fill="#3a5a8f" opacity="0.4"/>
    <rect x="516" y="476" width="24" height="24" fill="#3a5a8f" opacity="0.4"/>
    <rect x="486" y="476" width="24" height="24" fill="#3a5a8f" opacity="0.4"/>
    <rect x="456" y="476" width="24" height="24" fill="#3a5a8f" opacity="0.4"/>
    <!-- Layer 2 -->
    <rect x="423" y="413" width="24" height="24" fill="#5a7aaf" opacity="0.55"/>
    <rect x="423" y="443" width="24" height="24" fill="#5a7aaf" opacity="0.55"/>
    <rect x="423" y="473" width="24" height="24" fill="#5a7aaf" opacity="0.55"/>
    <rect x="423" y="503" width="24" height="24" fill="#5a7aaf" opacity="0.55"/>
    <rect x="423" y="533" width="24" height="24" fill="#5a7aaf" opacity="0.55"/>
    <rect x="453" y="413" width="24" height="24" fill="#5a7aaf" opacity="0.55"/>
    <rect x="483" y="413" width="24" height="24" fill="#5a7aaf" opacity="0.55"/>
    <rect x="513" y="413" width="24" height="24" fill="#5a7aaf" opacity="0.55"/>
    <rect x="513" y="443" width="24" height="24" fill="#5a7aaf" opacity="0.55"/>
    <rect x="513" y="473" width="24" height="24" fill="#5a7aaf" opacity="0.55"/>
    <rect x="483" y="473" width="24" height="24" fill="#5a7aaf" opacity="0.55"/>
    <rect x="453" y="473" width="24" height="24" fill="#5a7aaf" opacity="0.55"/>
    <!-- Layer 1 (front, brightest) -->
    <g filter="url(#innerGlow)">
      <rect x="420" y="410" width="24" height="24" fill="#c5d9ef" opacity="0.92"/>
      <rect x="420" y="440" width="24" height="24" fill="#deeeff" opacity="0.95"/>
      <rect x="420" y="470" width="24" height="24" fill="#c5d9ef" opacity="0.92"/>
      <rect x="420" y="500" width="24" height="24" fill="#deeeff" opacity="0.95"/>
      <rect x="420" y="530" width="24" height="24" fill="#c5d9ef" opacity="0.92"/>
      <rect x="450" y="410" width="24" height="24" fill="#deeeff" opacity="0.95"/>
      <rect x="480" y="410" width="24" height="24" fill="#c5d9ef" opacity="0.92"/>
      <rect x="510" y="410" width="24" height="24" fill="#deeeff" opacity="0.95"/>
      <rect x="510" y="440" width="24" height="24" fill="#c5d9ef" opacity="0.92"/>
      <rect x="510" y="470" width="24" height="24" fill="#deeeff" opacity="0.95"/>
      <rect x="480" y="470" width="24" height="24" fill="#c5d9ef" opacity="0.92"/>
      <rect x="450" y="470" width="24" height="24" fill="#deeeff" opacity="0.95"/>
    </g>
    
    <!-- O -->
    <rect x="579" y="424" width="24" height="24" fill="#1a2a3f" opacity="0.18"/>
    <rect x="609" y="424" width="24" height="24" fill="#1a2a3f" opacity="0.18"/>
    <rect x="639" y="424" width="24" height="24" fill="#1a2a3f" opacity="0.18"/>
    <rect x="669" y="454" width="24" height="24" fill="#1a2a3f" opacity="0.18"/>
    <rect x="669" y="484" width="24" height="24" fill="#1a2a3f" opacity="0.18"/>
    <rect x="669" y="514" width="24" height="24" fill="#1a2a3f" opacity="0.18"/>
    <rect x="639" y="544" width="24" height="24" fill="#1a2a3f" opacity="0.18"/>
    <rect x="609" y="544" width="24" height="24" fill="#1a2a3f" opacity="0.18"/>
    <rect x="579" y="544" width="24" height="24" fill="#1a2a3f" opacity="0.18"/>
    <rect x="549" y="514" width="24" height="24" fill="#1a2a3f" opacity="0.18"/>
    <rect x="549" y="484" width="24" height="24" fill="#1a2a3f" opacity="0.18"/>
    <rect x="549" y="454" width="24" height="24" fill="#1a2a3f" opacity="0.18"/>
    
    <rect x="575" y="420" width="24" height="24" fill="#2a3a5f" opacity="0.28"/>
    <rect x="605" y="420" width="24" height="24" fill="#2a3a5f" opacity="0.28"/>
    <rect x="635" y="420" width="24" height="24" fill="#2a3a5f" opacity="0.28"/>
    <rect x="665" y="450" width="24" height="24" fill="#2a3a5f" opacity="0.28"/>
    <rect x="665" y="480" width="24" height="24" fill="#2a3a5f" opacity="0.28"/>
    <rect x="665" y="510" width="24" height="24" fill="#2a3a5f" opacity="0.28"/>
    <rect x="635" y="540" width="24" height="24" fill="#2a3a5f" opacity="0.28"/>
    <rect x="605" y="540" width="24" height="24" fill="#2a3a5f" opacity="0.28"/>
    <rect x="575" y="540" width="24" height="24" fill="#2a3a5f" opacity="0.28"/>
    <rect x="545" y="510" width="24" height="24" fill="#2a3a5f" opacity="0.28"/>
    <rect x="545" y="480" width="24" height="24" fill="#2a3a5f" opacity="0.28"/>
    <rect x="545" y="450" width="24" height="24" fill="#2a3a5f" opacity="0.28"/>
    
    <rect x="571" y="416" width="24" height="24" fill="#3a5a8f" opacity="0.4"/>
    <rect x="601" y="416" width="24" height="24" fill="#3a5a8f" opacity="0.4"/>
    <rect x="631" y="416" width="24" height="24" fill="#3a5a8f" opacity="0.4"/>
    <rect x="661" y="446" width="24" height="24" fill="#3a5a8f" opacity="0.4"/>
    <rect x="661" y="476" width="24" height="24" fill="#3a5a8f" opacity="0.4"/>
    <rect x="661" y="506" width="24" height="24" fill="#3a5a8f" opacity="0.4"/>
    <rect x="631" y="536" width="24" height="24" fill="#3a5a8f" opacity="0.4"/>
    <rect x="601" y="536" width="24" height="24" fill="#3a5a8f" opacity="0.4"/>
    <rect x="571" y="536" width="24" height="24" fill="#3a5a8f" opacity="0.4"/>
    <rect x="541" y="506" width="24" height="24" fill="#3a5a8f" opacity="0.4"/>
    <rect x="541" y="476" width="24" height="24" fill="#3a5a8f" opacity="0.4"/>
    <rect x="541" y="446" width="24" height="24" fill="#3a5a8f" opacity="0.4"/>
    
    <rect x="568" y="413" width="24" height="24" fill="#5a7aaf" opacity="0.55"/>
    <rect x="598" y="413" width="24" height="24" fill="#5a7aaf" opacity="0.55"/>
    <rect x="628" y="413" width="24" height="24" fill="#5a7aaf" opacity="0.55"/>
    <rect x="658" y="443" width="24" height="24" fill="#5a7aaf" opacity="0.55"/>
    <rect x="658" y="473" width="24" height="24" fill="#5a7aaf" opacity="0.55"/>
    <rect x="658" y="503" width="24" height="24" fill="#5a7aaf" opacity="0.55"/>
    <rect x="628" y="533" width="24" height="24" fill="#5a7aaf" opacity="0.55"/>
    <rect x="598" y="533" width="24" height="24" fill="#5a7aaf" opacity="0.55"/>
    <rect x="568" y="533" width="24" height="24" fill="#5a7aaf" opacity="0.55"/>
    <rect x="538" y="503" width="24" height="24" fill="#5a7aaf" opacity="0.55"/>
    <rect x="538" y="473" width="24" height="24" fill="#5a7aaf" opacity="0.55"/>
    <rect x="538" y="443" width="24" height="24" fill="#5a7aaf" opacity="0.55"/>
    
    <g filter="url(#innerGlow)">
      <rect x="565" y="410" width="24" height="24" fill="#deeeff" opacity="0.95"/>
      <rect x="595" y="410" width="24" height="24" fill="#c5d9ef" opacity="0.92"/>
      <rect x="625" y="410" width="24" height="24" fill="#deeeff" opacity="0.95"/>
      <rect x="655" y="440" width="24" height="24" fill="#c5d9ef" opacity="0.92"/>
      <rect x="655" y="470" width="24" height="24" fill="#deeeff" opacity="0.95"/>
      <rect x="655" y="500" width="24" height="24" fill="#c5d9ef" opacity="0.92"/>
      <rect x="625" y="530" width="24" height="24" fill="#deeeff" opacity="0.95"/>
      <rect x="595" y="530" width="24" height="24" fill="#c5d9ef" opacity="0.92"/>
      <rect x="565" y="530" width="24" height="24" fill="#deeeff" opacity="0.95"/>
      <rect x="535" y="500" width="24" height="24" fill="#c5d9ef" opacity="0.92"/>
      <rect x="535" y="470" width="24" height="24" fill="#deeeff" opacity="0.95"/>
      <rect x="535" y="440" width="24" height="24" fill="#c5d9ef" opacity="0.92"/>
    </g>
    
    <!-- L -->
    <rect x="714" y="424" width="24" height="24" fill="#1a2a3f" opacity="0.18"/>
    <rect x="714" y="454" width="24" height="24" fill="#1a2a3f" opacity="0.18"/>
    <rect x="714" y="484" width="24" height="24" fill="#1a2a3f" opacity="0.18"/>
    <rect x="714" y="514" width="24" height="24" fill="#1a2a3f" opacity="0.18"/>
    <rect x="714" y="544" width="24" height="24" fill="#1a2a3f" opacity="0.18"/>
    <rect x="744" y="544" width="24" height="24" fill="#1a2a3f" opacity="0.18"/>
    <rect x="774" y="544" width="24" height="24" fill="#1a2a3f" opacity="0.18"/>
    <rect x="804" y="544" width="24" height="24" fill="#1a2a3f" opacity="0.18"/>
    
    <rect x="710" y="420" width="24" height="24" fill="#2a3a5f" opacity="0.28"/>
    <rect x="710" y="450" width="24" height="24" fill="#2a3a5f" opacity="0.28"/>
    <rect x="710" y="480" width="24" height="24" fill="#2a3a5f" opacity="0.28"/>
    <rect x="710" y="510" width="24" height="24" fill="#2a3a5f" opacity="0.28"/>
    <rect x="710" y="540" width="24" height="24" fill="#2a3a5f" opacity="0.28"/>
    <rect x="740" y="540" width="24" height="24" fill="#2a3a5f" opacity="0.28"/>
    <rect x="770" y="540" width="24" height="24" fill="#2a3a5f" opacity="0.28"/>
    <rect x="800" y="540" width="24" height="24" fill="#2a3a5f" opacity="0.28"/>
    
    <rect x="706" y="416" width="24" height="24" fill="#3a5a8f" opacity="0.4"/>
    <rect x="706" y="446" width="24" height="24" fill="#3a5a8f" opacity="0.4"/>
    <rect x="706" y="476" width="24" height="24" fill="#3a5a8f" opacity="0.4"/>
    <rect x="706" y="506" width="24" height="24" fill="#3a5a8f" opacity="0.4"/>
    <rect x="706" y="536" width="24" height="24" fill="#3a5a8f" opacity="0.4"/>
    <rect x="736" y="536" width="24" height="24" fill="#3a5a8f" opacity="0.4"/>
    <rect x="766" y="536" width="24" height="24" fill="#3a5a8f" opacity="0.4"/>
    <rect x="796" y="536" width="24" height="24" fill="#3a5a8f" opacity="0.4"/>
    
    <rect x="703" y="413" width="24" height="24" fill="#5a7aaf" opacity="0.55"/>
    <rect x="703" y="443" width="24" height="24" fill="#5a7aaf" opacity="0.55"/>
    <rect x="703" y="473" width="24" height="24" fill="#5a7aaf" opacity="0.55"/>
    <rect x="703" y="503" width="24" height="24" fill="#5a7aaf" opacity="0.55"/>
    <rect x="703" y="533" width="24" height="24" fill="#5a7aaf" opacity="0.55"/>
    <rect x="733" y="533" width="24" height="24" fill="#5a7aaf" opacity="0.55"/>
    <rect x="763" y="533" width="24" height="24" fill="#5a7aaf" opacity="0.55"/>
    <rect x="793" y="533" width="24" height="24" fill="#5a7aaf" opacity="0.55"/>
    
    <g filter="url(#innerGlow)">
      <rect x="700" y="410" width="24" height="24" fill="#c5d9ef" opacity="0.92"/>
      <rect x="700" y="440" width="24" height="24" fill="#deeeff" opacity="0.95"/>
      <rect x="700" y="470" width="24" height="24" fill="#c5d9ef" opacity="0.92"/>
      <rect x="700" y="500" width="24" height="24" fill="#deeeff" opacity="0.95"/>
      <rect x="700" y="530" width="24" height="24" fill="#c5d9ef" opacity="0.92"/>
      <rect x="730" y="530" width="24" height="24" fill="#deeeff" opacity="0.95"/>
      <rect x="760" y="530" width="24" height="24" fill="#c5d9ef" opacity="0.92"/>
      <rect x="790" y="530" width="24" height="24" fill="#deeeff" opacity="0.95"/>
    </g>
    
    <!-- A -->
    <rect x="889" y="424" width="24" height="24" fill="#1a2a3f" opacity="0.18"/>
    <rect x="859" y="454" width="24" height="24" fill="#1a2a3f" opacity="0.18"/>
    <rect x="829" y="484" width="24" height="24" fill="#1a2a3f" opacity="0.18"/>
    <rect x="799" y="514" width="24" height="24" fill="#1a2a3f" opacity="0.18"/>
    <rect x="769" y="544" width="24" height="24" fill="#1a2a3f" opacity="0.18"/>
    <rect x="859" y="484" width="24" height="24" fill="#1a2a3f" opacity="0.18"/>
    <rect x="889" y="484" width="24" height="24" fill="#1a2a3f" opacity="0.18"/>
    <rect x="919" y="484" width="24" height="24" fill="#1a2a3f" opacity="0.18"/>
    <rect x="919" y="454" width="24" height="24" fill="#1a2a3f" opacity="0.18"/>
    <rect x="949" y="484" width="24" height="24" fill="#1a2a3f" opacity="0.18"/>
    <rect x="979" y="514" width="24" height="24" fill="#1a2a3f" opacity="0.18"/>
    <rect x="1009" y="544" width="24" height="24" fill="#1a2a3f" opacity="0.18"/>
    
    <rect x="885" y="420" width="24" height="24" fill="#2a3a5f" opacity="0.28"/>
    <rect x="855" y="450" width="24" height="24" fill="#2a3a5f" opacity="0.28"/>
    <rect x="825" y="480" width="24" height="24" fill="#2a3a5f" opacity="0.28"/>
    <rect x="795" y="510" width="24" height="24" fill="#2a3a5f" opacity="0.28"/>
    <rect x="765" y="540" width="24" height="24" fill="#2a3a5f" opacity="0.28"/>
    <rect x="855" y="480" width="24" height="24" fill="#2a3a5f" opacity="0.28"/>
    <rect x="885" y="480" width="24" height="24" fill="#2a3a5f" opacity="0.28"/>
    <rect x="915" y="480" width="24" height="24" fill="#2a3a5f" opacity="0.28"/>
    <rect x="915" y="450" width="24" height="24" fill="#2a3a5f" opacity="0.28"/>
    <rect x="945" y="480" width="24" height="24" fill="#2a3a5f" opacity="0.28"/>
    <rect x="975" y="510" width="24" height="24" fill="#2a3a5f" opacity="0.28"/>
    <rect x="1005" y="540" width="24" height="24" fill="#2a3a5f" opacity="0.28"/>
    
    <rect x="881" y="416" width="24" height="24" fill="#3a5a8f" opacity="0.4"/>
    <rect x="851" y="446" width="24" height="24" fill="#3a5a8f" opacity="0.4"/>
    <rect x="821" y="476" width="24" height="24" fill="#3a5a8f" opacity="0.4"/>
    <rect x="791" y="506" width="24" height="24" fill="#3a5a8f" opacity="0.4"/>
    <rect x="761" y="536" width="24" height="24" fill="#3a5a8f" opacity="0.4"/>
    <rect x="851" y="476" width="24" height="24" fill="#3a5a8f" opacity="0.4"/>
    <rect x="881" y="476" width="24" height="24" fill="#3a5a8f" opacity="0.4"/>
    <rect x="911" y="476" width="24" height="24" fill="#3a5a8f" opacity="0.4"/>
    <rect x="911" y="446" width="24" height="24" fill="#3a5a8f" opacity="0.4"/>
    <rect x="941" y="476" width="24" height="24" fill="#3a5a8f" opacity="0.4"/>
    <rect x="971" y="506" width="24" height="24" fill="#3a5a8f" opacity="0.4"/>
    <rect x="1001" y="536" width="24" height="24" fill="#3a5a8f" opacity="0.4"/>
    
    <rect x="878" y="413" width="24" height="24" fill="#5a7aaf" opacity="0.55"/>
    <rect x="848" y="443" width="24" height="24" fill="#5a7aaf" opacity="0.55"/>
    <rect x="818" y="473" width="24" height="24" fill="#5a7aaf" opacity="0.55"/>
    <rect x="788" y="503" width="24" height="24" fill="#5a7aaf" opacity="0.55"/>
    <rect x="758" y="533" width="24" height="24" fill="#5a7aaf" opacity="0.55"/>
    <rect x="848" y="473" width="24" height="24" fill="#5a7aaf" opacity="0.55"/>
    <rect x="878" y="473" width="24" height="24" fill="#5a7aaf" opacity="0.55"/>
    <rect x="908" y="473" width="24" height="24" fill="#5a7aaf" opacity="0.55"/>
    <rect x="908" y="443" width="24" height="24" fill="#5a7aaf" opacity="0.55"/>
    <rect x="938" y="473" width="24" height="24" fill="#5a7aaf" opacity="0.55"/>
    <rect x="968" y="503" width="24" height="24" fill="#5a7aaf" opacity="0.55"/>
    <rect x="998" y="533" width="24" height="24" fill="#5a7aaf" opacity="0.55"/>
    
    <g filter="url(#innerGlow)">
      <rect x="875" y="410" width="24" height="24" fill="#deeeff" opacity="0.95"/>
      <rect x="845" y="440" width="24" height="24" fill="#c5d9ef" opacity="0.92"/>
      <rect x="815" y="470" width="24" height="24" fill="#deeeff" opacity="0.95"/>
      <rect x="785" y="500" width="24" height="24" fill="#c5d9ef" opacity="0.92"/>
      <rect x="755" y="530" width="24" height="24" fill="#deeeff" opacity="0.95"/>
      <rect x="845" y="470" width="24" height="24" fill="#c5d9ef" opacity="0.92"/>
      <rect x="875" y="470" width="24" height="24" fill="#deeeff" opacity="0.95"/>
      <rect x="905" y="470" width="24" height="24" fill="#c5d9ef" opacity="0.92"/>
      <rect x="905" y="440" width="24" height="24" fill="#deeeff" opacity="0.95"/>
      <rect x="935" y="470" width="24" height="24" fill="#c5d9ef" opacity="0.92"/>
      <rect x="965" y="500" width="24" height="24" fill="#deeeff" opacity="0.95"/>
      <rect x="995" y="530" width="24" height="24" fill="#c5d9ef" opacity="0.92"/>
    </g>
    
    <!-- R -->
    <rect x="1054" y="424" width="24" height="24" fill="#1a2a3f" opacity="0.18"/>
    <rect x="1054" y="454" width="24" height="24" fill="#1a2a3f" opacity="0.18"/>
    <rect x="1054" y="484" width="24" height="24" fill="#1a2a3f" opacity="0.18"/>
    <rect x="1054" y="514" width="24" height="24" fill="#1a2a3f" opacity="0.18"/>
    <rect x="1054" y="544" width="24" height="24" fill="#1a2a3f" opacity="0.18"/>
    <rect x="1084" y="424" width="24" height="24" fill="#1a2a3f" opacity="0.18"/>
    <rect x="1114" y="424" width="24" height="24" fill="#1a2a3f" opacity="0.18"/>
    <rect x="1144" y="424" width="24" height="24" fill="#1a2a3f" opacity="0.18"/>
    <rect x="1144" y="454" width="24" height="24" fill="#1a2a3f" opacity="0.18"/>
    <rect x="1144" y="484" width="24" height="24" fill="#1a2a3f" opacity="0.18"/>
    <rect x="1114" y="484" width="24" height="24" fill="#1a2a3f" opacity="0.18"/>
    <rect x="1084" y="484" width="24" height="24" fill="#1a2a3f" opacity="0.18"/>
    <rect x="1114" y="514" width="24" height="24" fill="#1a2a3f" opacity="0.18"/>
    <rect x="1144" y="544" width="24" height="24" fill="#1a2a3f" opacity="0.18"/>
    
    <rect x="1050" y="420" width="24" height="24" fill="#2a3a5f" opacity="0.28"/>
    <rect x="1050" y="450" width="24" height="24" fill="#2a3a5f" opacity="0.28"/>
    <rect x="1050" y="480" width="24" height="24" fill="#2a3a5f" opacity="0.28"/>
    <rect x="1050" y="510" width="24" height="24" fill="#2a3a5f" opacity="0.28"/>
    <rect x="1050" y="540" width="24" height="24" fill="#2a3a5f" opacity="0.28"/>
    <rect x="1080" y="420" width="24" height="24" fill="#2a3a5f" opacity="0.28"/>
    <rect x="1110" y="420" width="24" height="24" fill="#2a3a5f" opacity="0.28"/>
    <rect x="1140" y="420" width="24" height="24" fill="#2a3a5f" opacity="0.28"/>
    <rect x="1140" y="450" width="24" height="24" fill="#2a3a5f" opacity="0.28"/>
    <rect x="1140" y="480" width="24" height="24" fill="#2a3a5f" opacity="0.28"/>
    <rect x="1110" y="480" width="24" height="24" fill="#2a3a5f" opacity="0.28"/>
    <rect x="1080" y="480" width="24" height="24" fill="#2a3a5f" opacity="0.28"/>
    <rect x="1110" y="510" width="24" height="24" fill="#2a3a5f" opacity="0.28"/>
    <rect x="1140" y="540" width="24" height="24" fill="#2a3a5f" opacity="0.28"/>
    
    <rect x="1046" y="416" width="24" height="24" fill="#3a5a8f" opacity="0.4"/>
    <rect x="1046" y="446" width="24" height="24" fill="#3a5a8f" opacity="0.4"/>
    <rect x="1046" y="476" width="24" height="24" fill="#3a5a8f" opacity="0.4"/>
    <rect x="1046" y="506" width="24" height="24" fill="#3a5a8f" opacity="0.4"/>
    <rect x="1046" y="536" width="24" height="24" fill="#3a5a8f" opacity="0.4"/>
    <rect x="1076" y="416" width="24" height="24" fill="#3a5a8f" opacity="0.4"/>
    <rect x="1106" y="416" width="24" height="24" fill="#3a5a8f" opacity="0.4"/>
    <rect x="1136" y="416" width="24" height="24" fill="#3a5a8f" opacity="0.4"/>
    <rect x="1136" y="446" width="24" height="24" fill="#3a5a8f" opacity="0.4"/>
    <rect x="1136" y="476" width="24" height="24" fill="#3a5a8f" opacity="0.4"/>
    <rect x="1106" y="476" width="24" height="24" fill="#3a5a8f" opacity="0.4"/>
    <rect x="1076" y="476" width="24" height="24" fill="#3a5a8f" opacity="0.4"/>
    <rect x="1106" y="506" width="24" height="24" fill="#3a5a8f" opacity="0.4"/>
    <rect x="1136" y="536" width="24" height="24" fill="#3a5a8f" opacity="0.4"/>
    
    <rect x="1043" y="413" width="24" height="24" fill="#5a7aaf" opacity="0.55"/>
    <rect x="1043" y="443" width="24" height="24" fill="#5a7aaf" opacity="0.55"/>
    <rect x="1043" y="473" width="24" height="24" fill="#5a7aaf" opacity="0.55"/>
    <rect x="1043" y="503" width="24" height="24" fill="#5a7aaf" opacity="0.55"/>
    <rect x="1043" y="533" width="24" height="24" fill="#5a7aaf" opacity="0.55"/>
    <rect x="1073" y="413" width="24" height="24" fill="#5a7aaf" opacity="0.55"/>
    <rect x="1103" y="413" width="24" height="24" fill="#5a7aaf" opacity="0.55"/>
    <rect x="1133" y="413" width="24" height="24" fill="#5a7aaf" opacity="0.55"/>
    <rect x="1133" y="443" width="24" height="24" fill="#5a7aaf" opacity="0.55"/>
    <rect x="1133" y="473" width="24" height="24" fill="#5a7aaf" opacity="0.55"/>
    <rect x="1103" y="473" width="24" height="24" fill="#5a7aaf" opacity="0.55"/>
    <rect x="1073" y="473" width="24" height="24" fill="#5a7aaf" opacity="0.55"/>
    <rect x="1103" y="503" width="24" height="24" fill="#5a7aaf" opacity="0.55"/>
    <rect x="1133" y="533" width="24" height="24" fill="#5a7aaf" opacity="0.55"/>
    
    <g filter="url(#innerGlow)">
      <rect x="1040" y="410" width="24" height="24" fill="#c5d9ef" opacity="0.92"/>
      <rect x="1040" y="440" width="24" height="24" fill="#deeeff" opacity="0.95"/>
      <rect x="1040" y="470" width="24" height="24" fill="#c5d9ef" opacity="0.92"/>
      <rect x="1040" y="500" width="24" height="24" fill="#deeeff" opacity="0.95"/>
      <rect x="1040" y="530" width="24" height="24" fill="#c5d9ef" opacity="0.92"/>
      <rect x="1070" y="410" width="24" height="24" fill="#deeeff" opacity="0.95"/>
      <rect x="1100" y="410" width="24" height="24" fill="#c5d9ef" opacity="0.92"/>
      <rect x="1130" y="410" width="24" height="24" fill="#deeeff" opacity="0.95"/>
      <rect x="1130" y="440" width="24" height="24" fill="#c5d9ef" opacity="0.92"/>
      <rect x="1130" y="470" width="24" height="24" fill="#deeeff" opacity="0.95"/>
      <rect x="1100" y="470" width="24" height="24" fill="#c5d9ef" opacity="0.92"/>
      <rect x="1070" y="470" width="24" height="24" fill="#deeeff" opacity="0.95"/>
      <rect x="1100" y="500" width="24" height="24" fill="#c5d9ef" opacity="0.92"/>
      <rect x="1130" y="530" width="24" height="24" fill="#deeeff" opacity="0.95"/>
    </g>
    
    <!-- I -->
    <rect x="1199" y="424" width="24" height="24" fill="#1a2a3f" opacity="0.18"/>
    <rect x="1199" y="454" width="24" height="24" fill="#1a2a3f" opacity="0.18"/>
    <rect x="1199" y="484" width="24" height="24" fill="#1a2a3f" opacity="0.18"/>
    <rect x="1199" y="514" width="24" height="24" fill="#1a2a3f" opacity="0.18"/>
    <rect x="1199" y="544" width="24" height="24" fill="#1a2a3f" opacity="0.18"/>
    
    <rect x="1195" y="420" width="24" height="24" fill="#2a3a5f" opacity="0.28"/>
    <rect x="1195" y="450" width="24" height="24" fill="#2a3a5f" opacity="0.28"/>
    <rect x="1195" y="480" width="24" height="24" fill="#2a3a5f" opacity="0.28"/>
    <rect x="1195" y="510" width="24" height="24" fill="#2a3a5f" opacity="0.28"/>
    <rect x="1195" y="540" width="24" height="24" fill="#2a3a5f" opacity="0.28"/>
    
    <rect x="1191" y="416" width="24" height="24" fill="#3a5a8f" opacity="0.4"/>
    <rect x="1191" y="446" width="24" height="24" fill="#3a5a8f" opacity="0.4"/>
    <rect x="1191" y="476" width="24" height="24" fill="#3a5a8f" opacity="0.4"/>
    <rect x="1191" y="506" width="24" height="24" fill="#3a5a8f" opacity="0.4"/>
    <rect x="1191" y="536" width="24" height="24" fill="#3a5a8f" opacity="0.4"/>
    
    <rect x="1188" y="413" width="24" height="24" fill="#5a7aaf" opacity="0.55"/>
    <rect x="1188" y="443" width="24" height="24" fill="#5a7aaf" opacity="0.55"/>
    <rect x="1188" y="473" width="24" height="24" fill="#5a7aaf" opacity="0.55"/>
    <rect x="1188" y="503" width="24" height="24" fill="#5a7aaf" opacity="0.55"/>
    <rect x="1188" y="533" width="24" height="24" fill="#5a7aaf" opacity="0.55"/>
    
    <g filter="url(#innerGlow)">
      <rect x="1185" y="410" width="24" height="24" fill="#c5d9ef" opacity="0.92"/>
      <rect x="1185" y="440" width="24" height="24" fill="#deeeff" opacity="0.95"/>
      <rect x="1185" y="470" width="24" height="24" fill="#c5d9ef" opacity="0.92"/>
      <rect x="1185" y="500" width="24" height="24" fill="#deeeff" opacity="0.95"/>
      <rect x="1185" y="530" width="24" height="24" fill="#c5d9ef" opacity="0.92"/>
    </g>
    
    <!-- T -->
    <rect x="1249" y="424" width="24" height="24" fill="#1a2a3f" opacity="0.18"/>
    <rect x="1279" y="424" width="24" height="24" fill="#1a2a3f" opacity="0.18"/>
    <rect x="1309" y="424" width="24" height="24" fill="#1a2a3f" opacity="0.18"/>
    <rect x="1339" y="424" width="24" height="24" fill="#1a2a3f" opacity="0.18"/>
    <rect x="1309" y="454" width="24" height="24" fill="#1a2a3f" opacity="0.18"/>
    <rect x="1309" y="484" width="24" height="24" fill="#1a2a3f" opacity="0.18"/>
    <rect x="1309" y="514" width="24" height="24" fill="#1a2a3f" opacity="0.18"/>
    <rect x="1309" y="544" width="24" height="24" fill="#1a2a3f" opacity="0.18"/>
    
    <rect x="1245" y="420" width="24" height="24" fill="#2a3a5f" opacity="0.28"/>
    <rect x="1275" y="420" width="24" height="24" fill="#2a3a5f" opacity="0.28"/>
    <rect x="1305" y="420" width="24" height="24" fill="#2a3a5f" opacity="0.28"/>
    <rect x="1335" y="420" width="24" height="24" fill="#2a3a5f" opacity="0.28"/>
    <rect x="1305" y="450" width="24" height="24" fill="#2a3a5f" opacity="0.28"/>
    <rect x="1305" y="480" width="24" height="24" fill="#2a3a5f" opacity="0.28"/>
    <rect x="1305" y="510" width="24" height="24" fill="#2a3a5f" opacity="0.28"/>
    <rect x="1305" y="540" width="24" height="24" fill="#2a3a5f" opacity="0.28"/>
    
    <rect x="1241" y="416" width="24" height="24" fill="#3a5a8f" opacity="0.4"/>
    <rect x="1271" y="416" width="24" height="24" fill="#3a5a8f" opacity="0.4"/>
    <rect x="1301" y="416" width="24" height="24" fill="#3a5a8f" opacity="0.4"/>
    <rect x="1331" y="416" width="24" height="24" fill="#3a5a8f" opacity="0.4"/>
    <rect x="1301" y="446" width="24" height="24" fill="#3a5a8f" opacity="0.4"/>
    <rect x="1301" y="476" width="24" height="24" fill="#3a5a8f" opacity="0.4"/>
    <rect x="1301" y="506" width="24" height="24" fill="#3a5a8f" opacity="0.4"/>
    <rect x="1301" y="536" width="24" height="24" fill="#3a5a8f" opacity="0.4"/>
    
    <rect x="1238" y="413" width="24" height="24" fill="#5a7aaf" opacity="0.55"/>
    <rect x="1268" y="413" width="24" height="24" fill="#5a7aaf" opacity="0.55"/>
    <rect x="1298" y="413" width="24" height="24" fill="#5a7aaf" opacity="0.55"/>
    <rect x="1328" y="413" width="24" height="24" fill="#5a7aaf" opacity="0.55"/>
    <rect x="1298" y="443" width="24" height="24" fill="#5a7aaf" opacity="0.55"/>
    <rect x="1298" y="473" width="24" height="24" fill="#5a7aaf" opacity="0.55"/>
    <rect x="1298" y="503" width="24" height="24" fill="#5a7aaf" opacity="0.55"/>
    <rect x="1298" y="533" width="24" height="24" fill="#5a7aaf" opacity="0.55"/>
    
    <g filter="url(#innerGlow)">
      <rect x="1235" y="410" width="24" height="24" fill="#deeeff" opacity="0.95"/>
      <rect x="1265" y="410" width="24" height="24" fill="#c5d9ef" opacity="0.92"/>
      <rect x="1295" y="410" width="24" height="24" fill="#deeeff" opacity="0.95"/>
      <rect x="1325" y="410" width="24" height="24" fill="#c5d9ef" opacity="0.92"/>
      <rect x="1295" y="440" width="24" height="24" fill="#c5d9ef" opacity="0.92"/>
      <rect x="1295" y="470" width="24" height="24" fill="#deeeff" opacity="0.95"/>
      <rect x="1295" y="500" width="24" height="24" fill="#c5d9ef" opacity="0.92"/>
      <rect x="1295" y="530" width="24" height="24" fill="#deeeff" opacity="0.95"/>
    </g>
    
    <!-- Y -->
    <rect x="1399" y="424" width="24" height="24" fill="#1a2a3f" opacity="0.18"/>
    <rect x="1429" y="454" width="24" height="24" fill="#1a2a3f" opacity="0.18"/>
    <rect x="1459" y="484" width="24" height="24" fill="#1a2a3f" opacity="0.18"/>
    <rect x="1459" y="514" width="24" height="24" fill="#1a2a3f" opacity="0.18"/>
    <rect x="1459" y="544" width="24" height="24" fill="#1a2a3f" opacity="0.18"/>
    <rect x="1519" y="424" width="24" height="24" fill="#1a2a3f" opacity="0.18"/>
    <rect x="1489" y="454" width="24" height="24" fill="#1a2a3f" opacity="0.18"/>
    
    <rect x="1395" y="420" width="24" height="24" fill="#2a3a5f" opacity="0.28"/>
    <rect x="1425" y="450" width="24" height="24" fill="#2a3a5f" opacity="0.28"/>
    <rect x="1455" y="480" width="24" height="24" fill="#2a3a5f" opacity="0.28"/>
    <rect x="1455" y="510" width="24" height="24" fill="#2a3a5f" opacity="0.28"/>
    <rect x="1455" y="540" width="24" height="24" fill="#2a3a5f" opacity="0.28"/>
    <rect x="1515" y="420" width="24" height="24" fill="#2a3a5f" opacity="0.28"/>
    <rect x="1485" y="450" width="24" height="24" fill="#2a3a5f" opacity="0.28"/>
    
    <rect x="1391" y="416" width="24" height="24" fill="#3a5a8f" opacity="0.4"/>
    <rect x="1421" y="446" width="24" height="24" fill="#3a5a8f" opacity="0.4"/>
    <rect x="1451" y="476" width="24" height="24" fill="#3a5a8f" opacity="0.4"/>
    <rect x="1451" y="506" width="24" height="24" fill="#3a5a8f" opacity="0.4"/>
    <rect x="1451" y="536" width="24" height="24" fill="#3a5a8f" opacity="0.4"/>
    <rect x="1511" y="416" width="24" height="24" fill="#3a5a8f" opacity="0.4"/>
    <rect x="1481" y="446" width="24" height="24" fill="#3a5a8f" opacity="0.4"/>
    
    <rect x="1388" y="413" width="24" height="24" fill="#5a7aaf" opacity="0.55"/>
    <rect x="1418" y="443" width="24" height="24" fill="#5a7aaf" opacity="0.55"/>
    <rect x="1448" y="473" width="24" height="24" fill="#5a7aaf" opacity="0.55"/>
    <rect x="1448" y="503" width="24" height="24" fill="#5a7aaf" opacity="0.55"/>
    <rect x="1448" y="533" width="24" height="24" fill="#5a7aaf" opacity="0.55"/>
    <rect x="1508" y="413" width="24" height="24" fill="#5a7aaf" opacity="0.55"/>
    <rect x="1478" y="443" width="24" height="24" fill="#5a7aaf" opacity="0.55"/>
    
    <g filter="url(#innerGlow)">
      <rect x="1385" y="410" width="24" height="24" fill="#deeeff" opacity="0.95"/>
      <rect x="1415" y="440" width="24" height="24" fill="#c5d9ef" opacity="0.92"/>
      <rect x="1445" y="470" width="24" height="24" fill="#deeeff" opacity="0.95"/>
      <rect x="1445" y="500" width="24" height="24" fill="#c5d9ef" opacity="0.92"/>
      <rect x="1445" y="530" width="24" height="24" fill="#deeeff" opacity="0.95"/>
      <rect x="1505" y="410" width="24" height="24" fill="#deeeff" opacity="0.95"/>
      <rect x="1475" y="440" width="24" height="24" fill="#c5d9ef" opacity="0.92"/>
    </g>
    
  </g>
  
</svg>
